<?xml version="1.0" encoding="UTF-8" ?>
<!DOCTYPE svg PUBLIC "-//W3C//DTD SVG 1.1//EN" "http://www.w3.org/Graphics/SVG/1.1/DTD/svg11.dtd">
<svg width="920pt" height="683pt" viewBox="0 0 920 683" version="1.1" xmlns="http://www.w3.org/2000/svg">
<g id="#ffffffff">
<path fill="#ffffff" opacity="1.00" d=" M 0.00 0.00 L 920.00 0.00 L 920.00 683.00 L 0.00 683.00 L 0.00 0.00 M 116.00 96.00 C 116.00 263.33 116.00 430.67 116.00 598.00 C 283.33 598.00 450.67 598.00 618.00 598.00 C 618.00 430.67 618.00 263.33 618.00 96.00 C 450.67 96.00 283.33 96.00 116.00 96.00 M 629.49 98.84 C 629.32 160.57 629.46 222.30 629.42 284.04 C 629.46 387.72 629.32 491.40 629.49 595.09 C 633.17 595.16 634.63 591.61 636.47 589.09 C 659.55 555.77 682.92 522.64 705.98 489.29 C 723.76 464.04 741.38 438.66 759.00 413.29 C 775.52 389.95 791.65 366.33 808.20 343.00 C 809.90 341.01 810.40 337.82 808.56 335.76 C 770.96 285.45 733.64 234.94 696.03 184.63 C 690.43 176.90 684.71 169.25 678.96 161.64 C 674.01 154.97 669.06 148.30 664.06 141.67 C 655.35 129.62 646.32 117.81 637.53 105.82 C 635.30 103.01 633.66 98.96 629.49 98.84 M 273.39 613.37 C 268.95 624.26 264.59 635.19 259.98 646.02 C 259.08 648.73 256.54 650.12 254.45 651.82 C 258.76 652.10 263.08 651.99 267.39 651.99 L 267.38 650.75 C 265.78 650.23 263.96 650.13 262.61 649.05 C 262.36 645.98 264.17 643.18 265.10 640.34 C 269.61 640.36 274.13 640.34 278.64 640.36 C 279.74 643.16 281.16 645.93 281.37 648.99 C 280.14 650.43 277.94 650.20 276.25 650.78 C 276.39 651.09 276.67 651.70 276.80 652.00 C 283.41 651.95 290.02 652.09 296.63 651.92 C 294.74 650.29 292.38 649.05 291.45 646.60 C 286.00 634.82 281.37 622.67 275.90 610.91 C 274.23 610.59 273.90 612.18 273.39 613.37 M 305.18 613.10 C 302.09 615.78 302.20 620.26 301.89 624.00 C 301.16 624.00 299.70 624.00 298.97 624.00 C 298.99 624.67 299.04 626.02 299.07 626.70 C 299.80 626.68 301.26 626.64 302.00 626.63 C 301.95 633.43 302.09 640.24 301.96 647.05 C 302.31 649.47 299.74 650.43 298.43 651.96 C 304.25 651.95 310.09 652.21 315.90 651.78 C 314.15 650.37 310.62 650.41 310.56 647.62 C 310.19 640.63 310.52 633.63 310.41 626.64 C 312.07 626.64 313.74 626.63 315.41 626.65 C 315.41 625.99 315.42 624.67 315.42 624.02 C 313.74 623.99 312.06 623.98 310.39 623.97 C 310.49 620.89 310.10 617.75 310.77 614.73 C 311.21 612.86 313.48 613.26 314.89 612.79 C 314.64 614.53 314.11 616.25 314.16 618.03 C 315.34 620.64 319.79 620.63 320.75 617.84 C 321.87 614.91 319.16 612.29 316.53 611.58 C 312.80 610.57 308.38 610.73 305.18 613.10 M 350.23 611.37 C 348.03 612.17 346.30 614.66 347.22 617.03 C 348.42 620.93 354.85 621.55 356.37 617.55 C 358.11 613.90 353.95 609.51 350.23 611.37 M 439.35 612.44 C 432.74 615.23 430.81 625.07 435.83 630.17 C 440.27 634.88 447.01 636.11 452.04 639.98 C 455.40 642.67 454.22 648.75 450.30 650.31 C 445.12 652.36 438.75 649.79 436.21 644.88 C 434.78 642.75 434.61 639.68 432.17 638.39 C 431.89 643.45 431.92 648.53 432.15 653.60 C 433.26 652.73 434.37 651.86 435.41 650.89 C 441.69 652.63 448.85 654.46 454.91 651.01 C 460.65 648.13 462.98 640.07 459.25 634.75 C 455.48 628.41 447.51 627.35 442.06 623.04 C 439.24 620.97 439.49 616.17 442.29 614.19 C 446.06 611.59 451.38 613.49 453.79 617.08 C 455.74 619.37 455.87 622.91 458.54 624.59 C 458.77 620.02 458.79 615.44 458.61 610.87 C 457.10 610.73 456.48 612.23 455.61 613.16 C 450.44 611.27 444.55 609.88 439.35 612.44 M 94.17 612.01 C 94.14 616.21 93.92 620.42 94.16 624.63 C 96.59 623.25 96.38 620.05 97.96 617.99 C 100.14 614.69 104.42 614.35 107.98 613.86 C 108.03 623.90 107.98 633.95 108.01 644.00 C 107.90 645.70 108.14 647.60 107.21 649.14 C 105.58 650.06 103.73 650.58 102.24 651.77 C 109.37 652.09 116.57 652.30 123.69 651.61 C 121.67 650.12 117.63 650.28 117.85 646.98 C 117.54 635.93 117.81 624.86 117.74 613.81 C 121.07 614.37 125.14 614.81 126.99 618.08 C 128.40 620.15 128.20 623.26 130.59 624.59 C 130.81 620.40 130.62 616.20 130.62 612.01 C 118.47 611.99 106.32 612.00 94.17 612.01 M 605.24 612.24 C 607.00 613.97 610.94 613.75 610.90 616.87 C 611.17 625.25 610.89 633.64 611.02 642.03 C 610.94 644.23 611.24 646.53 610.54 648.66 C 608.99 650.02 606.62 650.09 605.30 651.79 C 617.03 652.24 628.80 651.91 640.55 651.97 C 641.26 647.16 642.63 642.43 642.71 637.55 C 639.98 640.03 639.20 643.94 636.42 646.38 C 632.65 649.72 627.11 650.64 622.31 649.58 C 620.34 648.99 620.88 646.53 620.71 644.98 C 620.85 635.65 620.49 626.31 620.89 616.99 C 620.94 613.37 625.44 614.06 627.68 612.40 C 620.23 611.68 612.70 611.91 605.24 612.24 M 679.24 612.20 C 680.64 613.12 682.15 613.81 683.60 614.67 C 684.46 618.67 683.80 622.86 684.01 626.93 C 681.24 623.80 676.63 622.33 672.84 624.60 C 666.64 628.25 665.14 636.50 666.44 643.09 C 667.36 648.13 671.44 653.29 677.01 652.97 C 679.93 653.10 682.18 651.04 684.26 649.28 C 684.22 650.17 684.14 651.96 684.11 652.85 C 688.26 651.99 692.52 651.67 696.62 650.53 C 695.30 649.41 692.40 649.21 692.51 646.98 C 692.27 635.32 692.48 623.66 692.41 612.00 C 688.02 612.04 683.62 611.83 679.24 612.20 M 576.15 620.01 C 574.23 622.16 571.91 623.96 570.43 626.48 C 571.32 626.53 573.11 626.65 574.00 626.70 C 574.08 633.50 573.83 640.30 574.10 647.10 C 574.18 650.97 578.45 653.07 581.91 652.44 C 586.02 652.15 588.56 648.35 589.80 644.80 C 588.08 645.72 586.65 647.06 585.00 648.10 C 583.02 648.44 582.42 646.49 582.46 644.92 C 582.31 638.83 582.46 632.73 582.41 626.65 C 584.07 626.64 585.73 626.63 587.41 626.65 C 587.41 625.99 587.42 624.68 587.43 624.03 C 585.73 623.99 584.06 623.98 582.38 623.95 C 582.42 620.40 582.49 616.84 582.24 613.29 C 579.77 615.11 578.19 617.78 576.15 620.01 M 650.07 620.09 C 648.18 622.21 645.84 623.97 644.46 626.51 C 645.34 626.55 647.11 626.64 648.00 626.69 C 648.08 633.49 647.83 640.31 648.10 647.11 C 648.19 651.02 652.51 653.09 655.99 652.43 C 660.06 652.10 662.59 648.32 663.79 644.77 C 662.04 645.70 660.64 647.14 658.91 648.08 C 657.08 648.60 656.41 646.35 656.46 644.98 C 656.31 638.87 656.47 632.76 656.41 626.65 C 658.07 626.64 659.73 626.63 661.41 626.64 C 661.41 625.99 661.42 624.68 661.42 624.02 C 659.73 623.99 658.06 623.98 656.39 623.96 C 656.42 620.40 656.49 616.84 656.24 613.30 C 653.74 615.14 652.14 617.84 650.07 620.09 M 131.44 624.04 C 132.71 625.56 135.24 626.51 134.96 628.89 C 135.04 634.94 135.04 641.00 134.96 647.05 C 135.29 649.44 132.70 650.39 131.43 651.94 C 137.00 652.02 142.57 652.09 148.14 651.88 C 146.64 650.45 143.57 650.12 143.55 647.58 C 143.30 642.76 143.30 637.90 143.54 633.08 C 143.59 630.97 145.19 629.52 146.74 628.36 C 148.98 630.06 151.85 633.11 154.76 630.88 C 157.71 628.56 155.52 623.44 151.88 623.53 C 147.98 623.05 145.36 626.35 143.09 628.97 C 143.14 627.31 143.17 625.65 143.20 624.00 C 139.28 624.00 135.36 623.96 131.44 624.04 M 160.03 631.02 C 159.71 635.05 166.34 635.73 167.11 631.95 C 166.97 630.24 166.51 628.60 166.31 626.91 C 168.51 624.80 173.36 624.81 174.61 627.97 C 175.25 630.30 175.01 632.75 175.10 635.15 C 170.93 636.44 166.63 637.64 162.91 640.02 C 160.27 641.71 158.39 644.95 159.18 648.15 C 159.79 651.21 162.95 653.31 166.01 652.99 C 169.32 652.98 172.04 650.90 174.73 649.26 C 175.97 650.60 176.72 652.86 178.86 652.93 C 182.33 653.55 185.26 651.21 187.41 648.79 C 186.45 648.81 184.54 648.85 183.58 648.87 C 183.08 642.58 183.83 636.25 183.15 629.98 C 181.69 624.47 174.95 623.19 170.04 623.55 C 165.77 623.66 159.83 625.88 160.03 631.02 M 197.44 624.62 C 187.68 628.89 186.01 644.08 194.36 650.55 C 200.24 655.26 210.59 652.94 212.95 645.52 C 210.40 646.85 208.18 649.63 204.98 648.96 C 201.59 648.61 199.33 645.52 198.39 642.49 C 197.21 638.44 197.05 634.05 198.10 629.95 C 198.67 627.67 200.41 625.11 203.09 625.49 C 206.63 626.44 203.52 632.06 207.03 633.35 C 210.17 634.41 213.34 631.10 211.74 628.05 C 209.22 622.94 202.11 622.64 197.44 624.62 M 216.63 628.54 C 213.07 634.13 213.16 641.83 216.38 647.55 C 219.23 652.86 226.54 654.47 231.68 651.68 C 234.52 650.06 236.47 647.31 238.15 644.58 C 234.53 645.32 232.16 649.78 228.04 648.42 C 223.12 647.10 222.81 641.19 222.29 637.04 C 227.40 636.95 232.52 637.04 237.64 636.97 C 236.98 632.79 236.25 627.98 232.55 625.34 C 227.57 621.95 219.87 623.37 216.63 628.54 M 317.44 624.04 C 318.73 625.57 321.28 626.55 320.96 628.94 C 321.05 634.99 321.04 641.04 320.96 647.09 C 321.27 649.48 318.69 650.41 317.42 651.95 C 322.99 652.01 328.57 652.09 334.14 651.88 C 332.66 650.46 329.67 650.17 329.56 647.70 C 329.25 643.13 329.38 638.53 329.46 633.96 C 329.53 631.82 330.45 629.09 332.86 628.69 C 335.24 629.99 337.90 633.09 340.73 630.91 C 343.69 628.64 341.58 623.52 337.97 623.53 C 334.07 623.00 331.38 626.28 329.17 628.95 C 329.17 627.29 329.17 625.64 329.17 624.00 C 325.26 624.00 321.35 623.96 317.44 624.04 M 344.41 624.07 C 345.66 625.61 348.25 626.51 347.96 628.87 C 348.04 634.96 348.04 641.06 347.96 647.15 C 348.19 649.47 345.65 650.39 344.42 651.93 C 349.20 652.04 354.00 652.10 358.79 651.83 C 357.84 650.35 356.22 649.03 356.44 647.08 C 356.34 639.39 356.45 631.69 356.41 624.00 C 352.41 624.00 348.41 623.95 344.41 624.07 M 370.42 624.63 C 360.68 628.90 359.01 644.09 367.36 650.55 C 373.23 655.25 383.61 652.94 385.93 645.52 C 383.63 646.67 381.76 649.09 378.98 649.02 C 375.42 649.18 372.65 646.22 371.60 643.07 C 370.18 638.86 370.02 634.21 371.11 629.92 C 371.67 627.67 373.38 625.15 376.02 625.50 C 379.66 626.29 376.51 632.04 380.01 633.35 C 383.12 634.41 386.31 631.17 384.77 628.12 C 382.29 622.94 375.11 622.63 370.42 624.63 M 390.83 625.74 C 388.55 627.16 387.27 630.19 388.44 632.73 C 389.71 635.39 394.43 634.91 395.11 632.03 C 394.99 630.29 394.51 628.62 394.31 626.90 C 396.52 624.80 401.37 624.81 402.62 627.98 C 403.23 630.31 403.01 632.75 403.11 635.14 C 398.33 636.72 393.08 637.88 389.27 641.38 C 386.01 644.30 386.27 650.39 390.46 652.33 C 394.83 654.27 399.42 651.73 402.83 649.06 C 403.83 650.64 404.63 652.87 406.86 652.93 C 410.33 653.55 413.26 651.21 415.41 648.79 C 414.45 648.81 412.54 648.85 411.58 648.88 C 411.17 642.94 411.65 636.98 411.31 631.05 C 411.15 627.19 407.47 624.70 404.02 623.99 C 399.64 623.13 394.67 623.22 390.83 625.74 M 464.43 624.05 C 465.72 625.56 468.30 626.47 467.96 628.87 C 468.04 634.93 468.04 641.01 467.96 647.07 C 468.27 649.45 465.69 650.39 464.43 651.95 C 469.17 652.05 473.92 651.98 478.66 652.00 C 477.79 650.41 476.28 648.99 476.44 647.04 C 476.47 641.49 476.15 635.90 476.62 630.38 C 478.06 628.53 480.47 626.94 482.90 627.63 C 484.69 628.15 484.86 630.32 484.96 631.87 C 485.05 636.93 485.03 642.00 484.98 647.07 C 485.22 649.07 483.61 650.44 482.67 652.00 C 487.05 652.00 491.42 652.08 495.79 651.84 C 494.79 650.37 493.16 649.02 493.43 647.04 C 493.48 641.51 493.16 635.95 493.61 630.44 C 494.79 628.76 496.78 627.05 498.99 627.56 C 500.80 628.13 500.84 630.37 500.96 631.93 C 501.05 636.97 501.04 642.01 500.98 647.06 C 501.23 649.06 499.62 650.44 498.67 652.00 C 503.43 652.00 508.19 652.01 512.95 651.97 C 511.91 650.80 510.28 650.06 509.60 648.62 C 509.00 642.44 509.83 636.20 509.20 630.02 C 508.78 626.09 504.93 623.21 501.07 623.50 C 497.65 623.35 495.31 626.08 493.18 628.32 C 491.56 626.26 489.86 623.77 486.98 623.61 C 482.68 622.74 478.83 625.27 476.10 628.32 C 476.16 626.88 476.23 625.44 476.29 624.01 C 472.34 624.00 468.38 623.96 464.43 624.05 M 517.18 632.02 C 517.84 635.35 523.37 635.21 524.14 632.02 C 524.07 630.19 523.51 628.44 523.11 626.68 C 525.56 625.55 529.00 624.61 531.06 626.97 C 532.58 629.37 531.86 632.44 532.11 635.15 C 527.36 636.70 522.16 637.87 518.35 641.30 C 515.03 644.20 515.22 650.35 519.44 652.32 C 523.81 654.28 528.41 651.73 531.83 649.06 C 532.83 650.63 533.62 652.86 535.83 652.93 C 539.30 653.55 542.28 651.26 544.38 648.78 C 543.43 648.81 541.53 648.87 540.58 648.90 C 540.25 643.62 540.49 638.33 540.42 633.05 C 540.44 630.77 540.09 628.26 538.28 626.69 C 534.21 623.01 528.03 622.98 522.99 624.25 C 519.62 625.09 516.12 628.20 517.18 632.02 M 544.44 624.04 C 545.71 625.58 548.27 626.54 547.96 628.92 C 548.04 634.98 548.04 641.05 547.96 647.11 C 548.25 649.49 545.69 650.42 544.42 651.95 C 549.74 652.05 555.06 651.98 560.39 652.00 L 560.45 650.92 C 558.96 650.20 556.59 650.01 556.58 647.90 C 556.23 643.25 556.39 638.56 556.47 633.91 C 556.54 631.77 557.47 629.08 559.86 628.69 C 562.24 630.00 564.92 633.10 567.75 630.90 C 570.68 628.60 568.57 623.51 564.96 623.53 C 561.03 623.01 558.35 626.33 556.09 628.99 C 556.13 627.32 556.17 625.66 556.20 624.00 C 552.28 624.00 548.36 623.96 544.44 624.04 Z" />
<path fill="#ffffff" opacity="1.00" d=" M 484.36 125.53 C 486.80 125.50 489.25 125.50 491.70 125.51 C 509.10 166.69 526.57 207.84 544.00 249.01 C 550.05 262.81 555.20 277.11 563.04 290.04 C 566.11 295.31 571.81 298.82 577.99 298.64 C 577.99 300.76 577.99 302.88 578.01 305.00 C 549.93 305.00 521.85 305.00 493.77 305.00 C 493.77 302.82 493.77 300.64 493.78 298.46 C 499.81 297.41 506.59 298.53 511.88 294.87 C 515.38 292.32 514.73 287.45 513.74 283.81 C 511.05 273.58 506.72 263.88 502.63 254.16 C 483.12 254.11 463.60 254.15 444.08 254.14 C 440.29 264.33 435.84 274.32 433.12 284.88 C 431.93 288.42 433.02 292.76 436.44 294.62 C 441.73 297.66 448.03 297.90 453.96 298.52 C 453.97 300.68 453.98 302.84 454.00 305.00 C 436.40 305.00 418.80 305.01 401.20 304.99 C 401.20 302.86 401.20 300.72 401.20 298.59 C 406.58 297.33 412.25 295.28 415.54 290.55 C 419.69 284.55 422.48 277.76 425.40 271.11 C 445.13 222.62 464.76 174.08 484.36 125.53 M 447.99 244.00 C 464.90 244.00 481.80 244.00 498.71 244.00 C 489.97 222.88 481.20 201.77 472.48 180.64 C 464.19 201.71 456.18 222.89 447.99 244.00 Z" />
<path fill="#ffffff" opacity="1.00" d=" M 179.79 127.00 C 231.87 127.00 283.94 127.00 336.02 127.00 C 336.19 144.19 336.36 161.38 336.54 178.57 C 334.05 178.57 331.55 178.58 329.06 178.59 C 327.05 166.70 323.50 154.00 313.97 145.88 C 304.28 137.92 291.24 136.13 279.12 135.56 C 279.12 181.04 279.12 226.51 279.12 271.98 C 279.20 277.57 279.22 283.40 281.47 288.63 C 282.59 291.40 285.35 292.95 288.06 293.81 C 293.25 295.50 298.72 295.99 304.12 296.53 C 304.12 298.68 304.12 300.84 304.12 303.00 C 273.41 303.00 242.70 303.00 211.99 303.00 C 212.00 300.83 212.01 298.67 212.03 296.50 C 218.93 295.67 226.53 295.53 232.44 291.42 C 236.65 287.17 236.58 280.59 236.96 275.00 C 237.05 228.52 236.98 182.04 237.00 135.56 C 224.79 136.14 211.69 137.85 201.84 145.74 C 192.17 153.80 188.46 166.59 186.53 178.57 C 184.03 178.57 181.53 178.58 179.03 178.60 C 179.23 161.40 179.54 144.20 179.79 127.00 Z" />
<path fill="#ffffff" opacity="1.00" d=" M 277.06 330.37 C 279.02 330.10 280.97 329.75 282.96 329.74 C 329.96 329.38 376.97 329.26 423.98 329.58 C 429.97 329.67 435.99 329.37 441.94 330.20 C 456.32 330.48 470.72 330.47 485.11 330.77 C 488.26 330.61 491.38 331.09 494.51 331.47 C 500.36 331.50 506.21 331.64 512.06 331.85 C 513.74 331.81 515.42 331.74 517.11 331.61 C 518.28 331.42 519.46 331.31 520.65 331.29 C 520.19 331.75 519.74 332.22 519.30 332.70 C 522.37 332.55 525.45 332.58 528.53 332.57 L 528.49 333.37 C 533.18 333.33 537.87 333.56 542.57 333.54 L 542.54 334.36 C 545.93 334.34 549.33 334.47 552.73 334.44 L 552.49 335.34 C 555.58 335.32 558.68 335.42 561.78 335.38 L 561.39 336.32 C 565.16 336.32 568.93 336.50 572.70 336.50 L 572.36 337.62 C 573.81 337.50 575.27 337.39 576.73 337.28 L 576.29 338.34 C 578.68 338.26 580.92 338.81 583.02 340.00 C 580.91 341.15 578.67 341.70 576.30 341.67 L 576.72 342.72 C 575.25 342.60 573.79 342.49 572.33 342.39 L 572.72 343.53 C 570.27 343.51 567.84 343.55 565.40 343.53 L 565.62 344.48 C 561.24 344.46 556.86 344.69 552.48 344.68 L 552.75 345.55 C 547.80 345.48 542.84 345.91 537.90 345.54 C 538.75 345.83 539.61 346.14 540.48 346.45 C 538.30 346.52 536.13 346.55 533.96 346.63 C 531.47 347.26 528.90 347.58 526.34 347.44 C 528.69 347.05 531.08 347.02 533.45 346.70 C 530.62 346.52 527.74 346.54 525.02 347.36 C 516.01 347.92 506.91 347.15 497.96 348.32 C 488.72 349.11 479.39 348.07 470.19 349.47 C 455.78 349.60 441.36 349.80 426.94 349.80 C 414.32 351.06 401.60 350.31 388.94 350.58 C 364.48 350.64 340.01 350.59 315.55 350.48 C 312.35 350.21 309.17 349.65 305.96 349.80 C 287.31 349.76 268.66 349.60 250.02 349.25 C 240.44 347.64 230.58 349.42 221.02 347.72 C 215.03 347.48 209.02 347.56 203.03 347.24 C 197.17 345.71 190.97 347.32 185.14 345.65 C 181.59 345.51 178.04 345.40 174.48 345.41 L 174.57 344.54 C 171.51 344.56 168.46 344.45 165.41 344.45 L 165.62 343.52 C 162.87 343.52 160.12 343.45 157.38 343.46 L 157.70 342.39 C 155.89 342.44 154.10 342.49 152.30 342.55 L 152.82 341.54 C 150.24 341.62 147.74 341.07 145.35 340.14 C 147.46 338.29 150.12 338.22 152.78 338.62 L 152.32 337.45 C 154.12 337.51 155.91 337.55 157.71 337.62 L 157.34 336.55 C 160.40 336.55 163.47 336.44 166.54 336.45 L 166.42 335.50 C 169.15 335.52 171.89 335.45 174.63 335.47 L 174.42 334.59 C 178.24 334.51 182.15 334.84 185.88 333.83 C 191.57 333.38 197.28 333.57 202.98 333.23 C 208.88 331.94 215.00 332.72 220.99 332.28 C 227.60 331.02 234.39 331.74 241.08 331.38 C 252.99 329.95 265.08 330.84 277.06 330.37 Z" />
<path fill="#ffffff" opacity="1.00" d=" M 303.59 377.23 C 306.14 377.24 308.70 377.23 311.27 377.23 C 311.29 396.18 311.27 415.12 311.28 434.07 C 308.85 434.07 306.43 434.07 304.00 434.07 C 299.48 419.38 292.66 404.41 280.01 394.97 C 269.76 386.95 255.56 383.76 243.07 387.85 C 235.74 390.21 229.67 396.31 227.73 403.82 C 225.77 411.42 226.30 420.31 231.46 426.58 C 235.49 431.34 240.95 434.59 246.28 437.71 C 257.15 443.64 268.34 448.97 279.35 454.63 C 286.44 458.38 294.11 461.37 300.13 466.83 C 312.87 478.26 320.29 495.74 318.43 512.90 C 317.46 526.47 310.61 539.45 299.89 547.83 C 288.75 557.03 274.26 561.26 260.00 561.85 C 248.18 562.53 236.30 560.71 225.07 557.05 C 220.07 555.64 215.15 553.72 209.95 553.19 C 205.07 552.99 202.62 557.97 201.46 561.97 C 198.97 561.99 196.49 562.00 194.00 562.01 C 194.02 540.81 193.95 519.60 194.03 498.40 C 196.54 498.42 199.04 498.42 201.54 498.44 C 205.62 514.07 211.74 530.04 223.80 541.30 C 234.95 551.89 251.58 555.58 266.41 552.23 C 275.22 550.16 283.11 543.79 286.14 535.16 C 288.67 527.64 288.91 518.92 285.22 511.74 C 281.92 505.52 275.70 501.69 269.83 498.20 C 250.84 487.53 229.48 480.56 212.96 465.90 C 204.40 458.56 197.84 448.44 196.46 437.09 C 194.70 421.71 198.41 404.83 209.67 393.63 C 220.60 382.34 236.71 377.83 252.06 377.58 C 264.00 376.94 275.64 380.27 286.76 384.27 C 290.62 385.25 294.81 387.75 298.76 385.80 C 301.81 384.05 302.46 380.26 303.59 377.23 Z" />
<path fill="#ffffff" opacity="1.00" d=" M 407.99 381.00 C 438.04 381.00 468.09 381.00 498.14 381.00 C 498.12 383.16 498.10 385.32 498.06 387.49 C 491.23 388.05 483.91 388.18 477.83 391.75 C 472.62 395.71 472.55 403.07 472.16 409.04 C 472.05 450.35 472.16 491.67 472.11 532.99 C 472.10 536.98 472.51 541.47 475.49 544.44 C 478.59 547.28 483.02 547.77 487.03 548.20 C 497.71 548.95 508.53 547.79 518.82 544.82 C 525.10 543.05 530.50 539.28 535.96 535.86 C 541.49 532.49 545.02 526.91 549.05 522.01 C 554.22 514.51 557.44 505.89 561.01 497.56 C 563.52 497.55 566.04 497.55 568.57 497.55 C 565.02 517.37 561.47 537.19 557.91 557.00 C 507.94 557.00 457.97 557.00 408.00 557.00 C 408.00 554.67 408.00 552.34 408.00 550.02 C 413.66 549.10 419.56 548.46 424.69 545.72 C 429.37 542.99 429.86 536.90 429.99 532.04 C 430.01 490.02 430.00 447.99 430.00 405.97 C 429.96 400.80 429.19 394.66 424.58 391.48 C 419.66 388.37 413.65 388.03 408.02 387.47 C 408.00 385.31 407.99 383.15 407.99 381.00 Z" />
<path fill="#ffffff" opacity="1.00" d=" M 271.57 623.65 C 273.74 628.38 275.67 633.21 277.69 638.00 C 273.79 637.99 269.90 638.00 266.00 638.00 C 267.87 633.22 269.75 628.44 271.57 623.65 Z" />
<path fill="#ffffff" opacity="1.00" d=" M 223.29 627.27 C 224.37 624.82 228.45 624.90 229.33 627.48 C 230.11 629.82 230.03 632.33 230.23 634.77 C 227.49 634.78 224.75 634.77 222.01 634.75 C 222.31 632.24 222.24 629.61 223.29 627.27 Z" />
<path fill="#ffffff" opacity="1.00" d=" M 678.13 627.16 C 681.05 625.73 684.26 628.93 683.98 631.86 C 684.02 636.29 684.10 640.73 683.93 645.17 C 683.68 648.07 679.74 651.24 677.17 648.81 C 674.61 645.48 674.98 640.93 674.90 636.96 C 675.17 633.61 675.04 629.30 678.13 627.16 Z" />
<path fill="#ffffff" opacity="1.00" d=" M 168.94 640.99 C 170.32 638.93 172.79 638.15 174.91 637.12 C 175.01 640.18 175.00 643.25 175.03 646.32 C 173.32 647.43 171.25 649.65 169.14 648.06 C 167.42 646.14 167.56 643.05 168.94 640.99 Z" />
<path fill="#ffffff" opacity="1.00" d=" M 397.89 639.88 C 399.34 638.61 401.19 637.94 402.91 637.11 C 403.01 640.17 403.00 643.24 403.03 646.30 C 401.31 647.43 399.26 649.65 397.12 648.06 C 395.12 645.72 395.64 641.87 397.89 639.88 Z" />
<path fill="#ffffff" opacity="1.00" d=" M 531.73 637.18 C 532.17 640.20 531.97 643.27 532.03 646.32 C 530.30 647.44 528.23 649.67 526.10 648.04 C 524.28 645.89 524.58 642.43 526.41 640.38 C 527.81 638.80 529.84 638.02 531.73 637.18 Z" />
</g>
<g id="#072c56ff">
<path fill="#072c56" opacity="1.00" d=" M 116.00 96.00 C 283.33 96.00 450.67 96.00 618.00 96.00 C 618.00 263.33 618.00 430.67 618.00 598.00 C 450.67 598.00 283.33 598.00 116.00 598.00 C 116.00 430.67 116.00 263.33 116.00 96.00 M 484.36 125.53 C 464.76 174.08 445.13 222.62 425.40 271.11 C 422.48 277.76 419.69 284.55 415.54 290.55 C 412.25 295.28 406.58 297.33 401.20 298.59 C 401.20 300.72 401.20 302.86 401.20 304.99 C 418.80 305.01 436.40 305.00 454.00 305.00 C 453.98 302.84 453.97 300.68 453.96 298.52 C 448.03 297.90 441.73 297.66 436.44 294.62 C 433.02 292.76 431.93 288.42 433.12 284.88 C 435.84 274.32 440.29 264.33 444.08 254.14 C 463.60 254.15 483.12 254.11 502.63 254.16 C 506.72 263.88 511.05 273.58 513.74 283.81 C 514.73 287.45 515.38 292.32 511.88 294.87 C 506.59 298.53 499.81 297.41 493.78 298.46 C 493.77 300.64 493.77 302.82 493.77 305.00 C 521.85 305.00 549.93 305.00 578.01 305.00 C 577.99 302.88 577.99 300.76 577.99 298.64 C 571.81 298.82 566.11 295.31 563.04 290.04 C 555.20 277.11 550.05 262.81 544.00 249.01 C 526.57 207.84 509.10 166.69 491.70 125.51 C 489.25 125.50 486.80 125.50 484.36 125.53 M 179.79 127.00 C 179.54 144.20 179.23 161.40 179.03 178.60 C 181.53 178.58 184.03 178.57 186.53 178.57 C 188.46 166.59 192.17 153.80 201.84 145.74 C 211.69 137.85 224.79 136.14 237.00 135.56 C 236.98 182.04 237.05 228.52 236.96 275.00 C 236.58 280.59 236.65 287.17 232.44 291.42 C 226.53 295.53 218.93 295.67 212.03 296.50 C 212.01 298.67 212.00 300.83 211.99 303.00 C 242.70 303.00 273.41 303.00 304.12 303.00 C 304.12 300.84 304.12 298.68 304.12 296.53 C 298.72 295.99 293.25 295.50 288.06 293.81 C 285.35 292.95 282.59 291.40 281.47 288.63 C 279.22 283.40 279.20 277.57 279.12 271.98 C 279.12 226.51 279.12 181.04 279.12 135.56 C 291.24 136.13 304.28 137.92 313.97 145.88 C 323.50 154.00 327.05 166.70 329.06 178.59 C 331.55 178.58 334.05 178.57 336.54 178.57 C 336.36 161.38 336.19 144.19 336.02 127.00 C 283.94 127.00 231.87 127.00 179.79 127.00 M 277.06 330.37 C 265.08 330.84 252.99 329.95 241.08 331.38 C 234.39 331.74 227.60 331.02 220.99 332.28 C 215.00 332.72 208.88 331.94 202.98 333.23 C 197.28 333.57 191.57 333.38 185.88 333.83 C 182.15 334.84 178.24 334.51 174.42 334.59 L 174.63 335.47 C 171.89 335.45 169.15 335.52 166.42 335.50 L 166.54 336.45 C 163.47 336.44 160.40 336.55 157.34 336.55 L 157.71 337.62 C 155.91 337.55 154.12 337.51 152.32 337.45 L 152.78 338.62 C 150.12 338.22 147.46 338.29 145.35 340.14 C 147.74 341.07 150.24 341.62 152.82 341.54 L 152.30 342.55 C 154.10 342.49 155.89 342.44 157.70 342.39 L 157.38 343.46 C 160.12 343.45 162.87 343.52 165.62 343.52 L 165.41 344.45 C 168.46 344.45 171.51 344.56 174.57 344.54 L 174.48 345.41 C 178.04 345.40 181.59 345.51 185.14 345.65 C 190.97 347.32 197.17 345.71 203.03 347.24 C 209.02 347.56 215.03 347.48 221.02 347.72 C 230.58 349.42 240.44 347.64 250.02 349.25 C 268.66 349.60 287.31 349.76 305.96 349.80 C 309.17 349.65 312.35 350.21 315.55 350.48 C 340.01 350.59 364.48 350.64 388.94 350.58 C 401.60 350.31 414.32 351.06 426.94 349.80 C 441.36 349.80 455.78 349.60 470.19 349.47 C 479.39 348.07 488.72 349.11 497.96 348.32 C 506.91 347.15 516.01 347.92 525.02 347.36 C 527.74 346.54 530.62 346.52 533.45 346.70 C 531.08 347.02 528.69 347.05 526.34 347.44 C 528.90 347.58 531.47 347.26 533.96 346.63 C 536.13 346.55 538.30 346.52 540.48 346.45 C 539.61 346.14 538.75 345.83 537.90 345.54 C 542.84 345.91 547.80 345.48 552.75 345.55 L 552.48 344.68 C 556.86 344.69 561.24 344.46 565.62 344.48 L 565.40 343.53 C 567.84 343.55 570.27 343.51 572.72 343.53 L 572.33 342.39 C 573.79 342.49 575.25 342.60 576.72 342.72 L 576.30 341.67 C 578.67 341.70 580.91 341.15 583.02 340.00 C 580.92 338.81 578.68 338.26 576.29 338.34 L 576.73 337.28 C 575.27 337.39 573.81 337.50 572.36 337.62 L 572.70 336.50 C 568.93 336.50 565.16 336.32 561.39 336.32 L 561.78 335.38 C 558.68 335.42 555.58 335.32 552.49 335.34 L 552.73 334.44 C 549.33 334.47 545.93 334.34 542.54 334.36 L 542.57 333.54 C 537.87 333.56 533.18 333.33 528.49 333.37 L 528.53 332.57 C 525.45 332.58 522.37 332.55 519.30 332.70 C 519.74 332.22 520.19 331.75 520.65 331.29 C 519.46 331.31 518.28 331.42 517.11 331.61 C 515.42 331.74 513.74 331.81 512.06 331.85 C 506.21 331.64 500.36 331.50 494.51 331.47 C 491.38 331.09 488.26 330.61 485.11 330.77 C 470.72 330.47 456.32 330.48 441.94 330.20 C 435.99 329.37 429.97 329.67 423.98 329.58 C 376.97 329.26 329.96 329.38 282.96 329.74 C 280.97 329.75 279.02 330.10 277.06 330.37 M 303.59 377.23 C 302.46 380.26 301.81 384.05 298.76 385.80 C 294.81 387.75 290.62 385.25 286.76 384.27 C 275.64 380.27 264.00 376.94 252.06 377.58 C 236.71 377.83 220.60 382.34 209.67 393.63 C 198.41 404.83 194.70 421.71 196.46 437.09 C 197.84 448.44 204.40 458.56 212.96 465.90 C 229.48 480.56 250.84 487.53 269.83 498.20 C 275.70 501.69 281.92 505.52 285.22 511.74 C 288.91 518.92 288.67 527.64 286.14 535.16 C 283.11 543.79 275.22 550.16 266.41 552.23 C 251.58 555.58 234.95 551.89 223.80 541.30 C 211.74 530.04 205.62 514.07 201.54 498.44 C 199.04 498.42 196.54 498.42 194.03 498.40 C 193.95 519.60 194.02 540.81 194.00 562.01 C 196.49 562.00 198.97 561.99 201.46 561.97 C 202.62 557.97 205.07 552.99 209.95 553.19 C 215.15 553.72 220.07 555.64 225.07 557.05 C 236.30 560.71 248.18 562.53 260.00 561.85 C 274.26 561.26 288.75 557.03 299.89 547.83 C 310.61 539.45 317.46 526.47 318.43 512.90 C 320.29 495.74 312.87 478.26 300.13 466.83 C 294.11 461.37 286.44 458.38 279.35 454.63 C 268.34 448.97 257.15 443.64 246.28 437.71 C 240.95 434.59 235.49 431.34 231.46 426.58 C 226.30 420.31 225.77 411.42 227.73 403.82 C 229.67 396.31 235.74 390.21 243.07 387.85 C 255.56 383.76 269.76 386.95 280.01 394.97 C 292.66 404.41 299.48 419.38 304.00 434.07 C 306.43 434.07 308.85 434.07 311.28 434.07 C 311.27 415.12 311.29 396.18 311.27 377.23 C 308.70 377.23 306.14 377.24 303.59 377.23 M 407.99 381.00 C 407.99 383.15 408.00 385.31 408.02 387.47 C 413.65 388.03 419.66 388.37 424.58 391.48 C 429.19 394.66 429.96 400.80 430.00 405.97 C 430.00 447.99 430.01 490.02 429.99 532.04 C 429.86 536.90 429.37 542.99 424.69 545.72 C 419.56 548.46 413.66 549.10 408.00 550.02 C 408.00 552.34 408.00 554.67 408.00 557.00 C 457.97 557.00 507.94 557.00 557.91 557.00 C 561.47 537.19 565.02 517.37 568.57 497.55 C 566.04 497.55 563.52 497.55 561.01 497.56 C 557.44 505.89 554.22 514.51 549.05 522.01 C 545.02 526.91 541.49 532.49 535.96 535.86 C 530.50 539.28 525.10 543.05 518.82 544.82 C 508.53 547.79 497.71 548.95 487.03 548.20 C 483.02 547.77 478.59 547.28 475.49 544.44 C 472.51 541.47 472.10 536.98 472.11 532.99 C 472.16 491.67 472.05 450.35 472.16 409.04 C 472.55 403.07 472.62 395.71 477.83 391.75 C 483.91 388.18 491.23 388.05 498.06 387.49 C 498.10 385.32 498.12 383.16 498.14 381.00 C 468.09 381.00 438.04 381.00 407.99 381.00 Z" />
<path fill="#072c56" opacity="1.00" d=" M 447.99 244.00 C 456.18 222.89 464.19 201.71 472.48 180.64 C 481.20 201.77 489.97 222.88 498.71 244.00 C 481.80 244.00 464.90 244.00 447.99 244.00 Z" />
<path fill="#072c56" opacity="1.00" d=" M 273.39 613.37 C 273.90 612.18 274.23 610.59 275.90 610.91 C 281.37 622.67 286.00 634.82 291.45 646.60 C 292.38 649.05 294.74 650.29 296.63 651.92 C 290.02 652.09 283.41 651.95 276.80 652.00 C 276.67 651.70 276.39 651.09 276.25 650.78 C 277.94 650.20 280.14 650.43 281.37 648.99 C 281.16 645.93 279.74 643.16 278.64 640.36 C 274.13 640.34 269.61 640.36 265.10 640.34 C 264.17 643.18 262.36 645.98 262.61 649.05 C 263.96 650.13 265.78 650.23 267.38 650.75 L 267.39 651.99 C 263.08 651.99 258.76 652.10 254.45 651.82 C 256.54 650.12 259.08 648.73 259.98 646.02 C 264.59 635.19 268.95 624.26 273.39 613.37 M 271.57 623.65 C 269.75 628.44 267.87 633.22 266.00 638.00 C 269.90 638.00 273.79 637.99 277.69 638.00 C 275.67 633.21 273.74 628.38 271.57 623.65 Z" />
<path fill="#072c56" opacity="1.00" d=" M 305.18 613.10 C 308.38 610.73 312.80 610.57 316.53 611.58 C 319.16 612.29 321.87 614.91 320.75 617.84 C 319.79 620.63 315.34 620.64 314.16 618.03 C 314.11 616.25 314.64 614.53 314.89 612.79 C 313.48 613.26 311.21 612.86 310.77 614.73 C 310.10 617.75 310.49 620.89 310.39 623.97 C 312.06 623.98 313.74 623.99 315.42 624.02 C 315.42 624.67 315.41 625.99 315.41 626.65 C 313.74 626.63 312.07 626.64 310.41 626.64 C 310.52 633.63 310.19 640.63 310.56 647.62 C 310.62 650.41 314.15 650.37 315.90 651.78 C 310.09 652.21 304.25 651.95 298.43 651.96 C 299.74 650.43 302.31 649.47 301.96 647.05 C 302.09 640.24 301.95 633.43 302.00 626.63 C 301.26 626.64 299.80 626.68 299.07 626.70 C 299.04 626.02 298.99 624.67 298.97 624.00 C 299.70 624.00 301.16 624.00 301.89 624.00 C 302.20 620.26 302.09 615.78 305.18 613.10 Z" />
<path fill="#072c56" opacity="1.00" d=" M 350.23 611.37 C 353.95 609.51 358.11 613.90 356.37 617.55 C 354.85 621.55 348.42 620.93 347.22 617.03 C 346.30 614.66 348.03 612.17 350.23 611.37 Z" />
<path fill="#072c56" opacity="1.00" d=" M 439.35 612.44 C 444.55 609.88 450.44 611.27 455.61 613.16 C 456.48 612.23 457.10 610.73 458.61 610.87 C 458.79 615.44 458.77 620.02 458.54 624.59 C 455.87 622.91 455.74 619.37 453.79 617.08 C 451.38 613.49 446.06 611.59 442.29 614.19 C 439.49 616.17 439.24 620.97 442.06 623.04 C 447.51 627.35 455.48 628.41 459.25 634.75 C 462.98 640.07 460.65 648.13 454.91 651.01 C 448.85 654.46 441.69 652.63 435.41 650.89 C 434.37 651.86 433.26 652.73 432.15 653.60 C 431.92 648.53 431.89 643.45 432.17 638.39 C 434.61 639.68 434.78 642.75 436.21 644.88 C 438.75 649.79 445.12 652.36 450.30 650.31 C 454.22 648.75 455.40 642.67 452.04 639.98 C 447.01 636.11 440.27 634.88 435.83 630.17 C 430.81 625.07 432.74 615.23 439.35 612.44 Z" />
<path fill="#072c56" opacity="1.00" d=" M 94.17 612.01 C 106.32 612.00 118.47 611.99 130.62 612.01 C 130.62 616.20 130.81 620.40 130.59 624.59 C 128.20 623.26 128.40 620.15 126.99 618.08 C 125.14 614.81 121.07 614.37 117.74 613.81 C 117.81 624.86 117.54 635.93 117.85 646.98 C 117.63 650.28 121.67 650.12 123.69 651.61 C 116.57 652.30 109.37 652.09 102.24 651.77 C 103.73 650.58 105.58 650.06 107.21 649.14 C 108.14 647.60 107.90 645.70 108.01 644.00 C 107.98 633.95 108.03 623.90 107.98 613.86 C 104.42 614.35 100.14 614.69 97.96 617.99 C 96.38 620.05 96.59 623.25 94.16 624.63 C 93.92 620.42 94.14 616.21 94.17 612.01 Z" />
<path fill="#072c56" opacity="1.00" d=" M 605.24 612.24 C 612.70 611.91 620.23 611.68 627.68 612.40 C 625.44 614.06 620.94 613.37 620.89 616.99 C 620.49 626.31 620.85 635.65 620.71 644.98 C 620.88 646.53 620.34 648.99 622.31 649.58 C 627.11 650.64 632.65 649.72 636.42 646.38 C 639.20 643.94 639.98 640.03 642.71 637.55 C 642.63 642.43 641.26 647.16 640.55 651.97 C 628.80 651.91 617.03 652.24 605.30 651.79 C 606.62 650.09 608.99 650.02 610.54 648.66 C 611.24 646.53 610.94 644.23 611.02 642.03 C 610.89 633.64 611.17 625.25 610.90 616.87 C 610.94 613.75 607.00 613.97 605.24 612.24 Z" />
<path fill="#072c56" opacity="1.00" d=" M 679.24 612.20 C 683.62 611.83 688.02 612.04 692.41 612.00 C 692.48 623.66 692.27 635.32 692.51 646.98 C 692.40 649.21 695.30 649.41 696.62 650.53 C 692.52 651.67 688.26 651.99 684.11 652.85 C 684.14 651.96 684.22 650.17 684.26 649.28 C 682.18 651.04 679.93 653.10 677.01 652.97 C 671.44 653.29 667.36 648.13 666.44 643.09 C 665.14 636.50 666.64 628.25 672.84 624.60 C 676.63 622.33 681.24 623.80 684.01 626.93 C 683.80 622.86 684.46 618.67 683.60 614.67 C 682.15 613.81 680.64 613.12 679.24 612.20 M 678.13 627.16 C 675.04 629.30 675.17 633.61 674.90 636.96 C 674.98 640.93 674.61 645.48 677.17 648.81 C 679.74 651.24 683.68 648.07 683.93 645.17 C 684.10 640.73 684.02 636.29 683.98 631.86 C 684.26 628.93 681.05 625.73 678.13 627.16 Z" />
<path fill="#072c56" opacity="1.00" d=" M 576.15 620.01 C 578.19 617.78 579.77 615.11 582.24 613.29 C 582.49 616.84 582.42 620.40 582.38 623.95 C 584.06 623.98 585.73 623.99 587.43 624.03 C 587.42 624.68 587.41 625.99 587.41 626.65 C 585.73 626.63 584.07 626.64 582.41 626.65 C 582.46 632.73 582.31 638.83 582.46 644.92 C 582.42 646.49 583.02 648.44 585.00 648.10 C 586.65 647.06 588.08 645.72 589.80 644.80 C 588.56 648.35 586.02 652.15 581.91 652.44 C 578.45 653.07 574.18 650.97 574.10 647.10 C 573.83 640.30 574.08 633.50 574.00 626.70 C 573.11 626.65 571.32 626.53 570.43 626.48 C 571.91 623.96 574.23 622.16 576.15 620.01 Z" />
<path fill="#072c56" opacity="1.00" d=" M 650.07 620.09 C 652.14 617.84 653.74 615.14 656.24 613.30 C 656.49 616.84 656.42 620.40 656.39 623.96 C 658.06 623.98 659.73 623.99 661.42 624.02 C 661.42 624.68 661.41 625.99 661.41 626.64 C 659.73 626.63 658.07 626.64 656.41 626.65 C 656.47 632.76 656.31 638.87 656.46 644.98 C 656.41 646.35 657.08 648.60 658.91 648.08 C 660.64 647.14 662.04 645.70 663.79 644.77 C 662.59 648.32 660.06 652.10 655.99 652.43 C 652.51 653.09 648.19 651.02 648.10 647.11 C 647.83 640.31 648.08 633.49 648.00 626.69 C 647.11 626.64 645.34 626.55 644.46 626.51 C 645.84 623.97 648.18 622.21 650.07 620.09 Z" />
<path fill="#072c56" opacity="1.00" d=" M 131.44 624.04 C 135.36 623.96 139.28 624.00 143.20 624.00 C 143.17 625.65 143.14 627.31 143.09 628.97 C 145.36 626.35 147.98 623.05 151.88 623.53 C 155.52 623.44 157.71 628.56 154.76 630.88 C 151.85 633.11 148.98 630.06 146.74 628.36 C 145.19 629.52 143.59 630.97 143.54 633.08 C 143.30 637.90 143.30 642.76 143.55 647.58 C 143.57 650.12 146.64 650.45 148.14 651.88 C 142.57 652.09 137.00 652.02 131.43 651.94 C 132.70 650.39 135.29 649.44 134.96 647.05 C 135.04 641.00 135.04 634.94 134.96 628.89 C 135.24 626.51 132.71 625.56 131.44 624.04 Z" />
<path fill="#072c56" opacity="1.00" d=" M 160.03 631.02 C 159.83 625.88 165.77 623.66 170.04 623.55 C 174.95 623.19 181.69 624.47 183.15 629.98 C 183.83 636.25 183.08 642.58 183.58 648.87 C 184.54 648.85 186.45 648.81 187.41 648.79 C 185.26 651.21 182.33 653.55 178.86 652.93 C 176.72 652.86 175.97 650.60 174.73 649.26 C 172.04 650.90 169.32 652.98 166.01 652.99 C 162.95 653.31 159.79 651.21 159.18 648.15 C 158.39 644.95 160.27 641.71 162.91 640.02 C 166.63 637.64 170.93 636.44 175.10 635.15 C 175.01 632.75 175.25 630.30 174.61 627.97 C 173.36 624.81 168.51 624.80 166.31 626.91 C 166.51 628.60 166.97 630.24 167.11 631.95 C 166.34 635.73 159.71 635.05 160.03 631.02 M 168.94 640.99 C 167.56 643.05 167.42 646.14 169.14 648.06 C 171.25 649.65 173.32 647.43 175.03 646.32 C 175.00 643.25 175.01 640.18 174.91 637.12 C 172.79 638.15 170.32 638.93 168.94 640.99 Z" />
<path fill="#072c56" opacity="1.00" d=" M 197.44 624.62 C 202.11 622.64 209.22 622.94 211.74 628.05 C 213.34 631.10 210.17 634.41 207.03 633.35 C 203.52 632.06 206.63 626.44 203.09 625.49 C 200.41 625.11 198.67 627.67 198.10 629.95 C 197.05 634.05 197.21 638.44 198.39 642.49 C 199.33 645.52 201.59 648.61 204.98 648.96 C 208.18 649.63 210.40 646.85 212.95 645.52 C 210.59 652.94 200.24 655.26 194.36 650.55 C 186.01 644.08 187.68 628.89 197.44 624.62 Z" />
<path fill="#072c56" opacity="1.00" d=" M 216.63 628.54 C 219.87 623.37 227.57 621.95 232.55 625.34 C 236.25 627.98 236.98 632.79 237.64 636.97 C 232.52 637.04 227.40 636.95 222.29 637.04 C 222.81 641.19 223.12 647.10 228.04 648.42 C 232.16 649.78 234.53 645.32 238.15 644.58 C 236.47 647.31 234.52 650.06 231.68 651.68 C 226.54 654.47 219.23 652.86 216.38 647.55 C 213.16 641.83 213.07 634.13 216.63 628.54 M 223.29 627.27 C 222.24 629.61 222.31 632.24 222.01 634.75 C 224.75 634.77 227.49 634.78 230.23 634.77 C 230.03 632.33 230.11 629.82 229.33 627.48 C 228.45 624.90 224.37 624.82 223.29 627.27 Z" />
<path fill="#072c56" opacity="1.00" d=" M 317.44 624.04 C 321.35 623.96 325.26 624.00 329.17 624.00 C 329.17 625.64 329.17 627.29 329.17 628.95 C 331.38 626.28 334.07 623.00 337.97 623.53 C 341.58 623.52 343.69 628.64 340.73 630.91 C 337.90 633.09 335.24 629.99 332.86 628.69 C 330.45 629.09 329.53 631.82 329.46 633.96 C 329.38 638.53 329.25 643.13 329.56 647.70 C 329.67 650.17 332.66 650.46 334.14 651.88 C 328.57 652.09 322.99 652.01 317.42 651.95 C 318.69 650.41 321.27 649.48 320.96 647.09 C 321.04 641.04 321.05 634.99 320.96 628.94 C 321.28 626.55 318.73 625.57 317.44 624.04 Z" />
<path fill="#072c56" opacity="1.00" d=" M 344.41 624.07 C 348.41 623.95 352.41 624.00 356.41 624.00 C 356.45 631.69 356.34 639.39 356.44 647.08 C 356.22 649.03 357.84 650.35 358.79 651.83 C 354.00 652.10 349.20 652.04 344.42 651.93 C 345.65 650.39 348.19 649.47 347.96 647.15 C 348.04 641.06 348.04 634.96 347.96 628.87 C 348.25 626.51 345.66 625.61 344.41 624.07 Z" />
<path fill="#072c56" opacity="1.00" d=" M 370.42 624.63 C 375.11 622.63 382.29 622.94 384.77 628.12 C 386.31 631.17 383.12 634.41 380.01 633.35 C 376.51 632.04 379.66 626.29 376.02 625.50 C 373.38 625.15 371.67 627.67 371.11 629.92 C 370.02 634.21 370.18 638.86 371.60 643.07 C 372.65 646.22 375.42 649.18 378.98 649.02 C 381.76 649.09 383.63 646.67 385.93 645.52 C 383.61 652.94 373.23 655.25 367.36 650.55 C 359.01 644.09 360.68 628.90 370.42 624.63 Z" />
<path fill="#072c56" opacity="1.00" d=" M 390.83 625.74 C 394.67 623.22 399.64 623.13 404.02 623.99 C 407.47 624.70 411.15 627.19 411.31 631.05 C 411.65 636.98 411.17 642.94 411.58 648.88 C 412.54 648.85 414.45 648.81 415.41 648.79 C 413.26 651.21 410.33 653.55 406.86 652.93 C 404.63 652.87 403.83 650.64 402.83 649.06 C 399.42 651.73 394.83 654.27 390.46 652.33 C 386.27 650.39 386.01 644.30 389.27 641.38 C 393.08 637.88 398.33 636.72 403.11 635.14 C 403.01 632.75 403.23 630.31 402.62 627.98 C 401.37 624.81 396.52 624.80 394.31 626.90 C 394.51 628.62 394.99 630.29 395.11 632.03 C 394.43 634.91 389.71 635.39 388.44 632.73 C 387.27 630.19 388.55 627.16 390.83 625.74 M 397.89 639.88 C 395.64 641.87 395.12 645.72 397.12 648.06 C 399.26 649.65 401.31 647.43 403.03 646.30 C 403.00 643.24 403.01 640.17 402.91 637.11 C 401.19 637.94 399.34 638.61 397.89 639.88 Z" />
<path fill="#072c56" opacity="1.00" d=" M 464.43 624.05 C 468.38 623.96 472.34 624.00 476.29 624.01 C 476.23 625.44 476.16 626.88 476.10 628.32 C 478.83 625.27 482.68 622.74 486.98 623.61 C 489.86 623.77 491.56 626.26 493.18 628.32 C 495.31 626.08 497.65 623.35 501.07 623.50 C 504.93 623.21 508.78 626.09 509.20 630.02 C 509.83 636.20 509.00 642.44 509.60 648.62 C 510.28 650.06 511.91 650.80 512.95 651.97 C 508.19 652.01 503.43 652.00 498.67 652.00 C 499.62 650.44 501.23 649.06 500.98 647.06 C 501.04 642.01 501.05 636.97 500.96 631.93 C 500.84 630.37 500.80 628.13 498.99 627.56 C 496.78 627.05 494.79 628.76 493.61 630.44 C 493.16 635.95 493.48 641.51 493.43 647.04 C 493.16 649.02 494.79 650.37 495.79 651.84 C 491.42 652.08 487.05 652.00 482.67 652.00 C 483.61 650.44 485.22 649.07 484.98 647.07 C 485.03 642.00 485.05 636.93 484.96 631.87 C 484.86 630.32 484.69 628.15 482.90 627.63 C 480.47 626.94 478.06 628.53 476.62 630.38 C 476.15 635.90 476.47 641.49 476.44 647.04 C 476.28 648.99 477.79 650.41 478.66 652.00 C 473.92 651.98 469.17 652.05 464.43 651.95 C 465.69 650.39 468.27 649.45 467.96 647.07 C 468.04 641.01 468.04 634.93 467.96 628.87 C 468.30 626.47 465.72 625.56 464.43 624.05 Z" />
<path fill="#072c56" opacity="1.00" d=" M 517.18 632.02 C 516.12 628.20 519.62 625.09 522.99 624.25 C 528.03 622.98 534.21 623.01 538.28 626.69 C 540.09 628.26 540.44 630.77 540.42 633.05 C 540.49 638.33 540.25 643.62 540.58 648.90 C 541.53 648.87 543.43 648.81 544.38 648.78 C 542.28 651.26 539.30 653.55 535.83 652.93 C 533.62 652.86 532.83 650.63 531.83 649.06 C 528.41 651.73 523.81 654.28 519.44 652.32 C 515.22 650.35 515.03 644.20 518.35 641.30 C 522.16 637.87 527.36 636.70 532.11 635.15 C 531.86 632.44 532.58 629.37 531.06 626.97 C 529.00 624.61 525.56 625.55 523.11 626.68 C 523.51 628.44 524.07 630.19 524.14 632.02 C 523.37 635.21 517.84 635.35 517.18 632.02 M 531.73 637.18 C 529.84 638.02 527.81 638.80 526.41 640.38 C 524.58 642.43 524.28 645.89 526.10 648.04 C 528.23 649.67 530.30 647.44 532.03 646.32 C 531.97 643.27 532.17 640.20 531.73 637.18 Z" />
<path fill="#072c56" opacity="1.00" d=" M 544.44 624.04 C 548.36 623.96 552.28 624.00 556.20 624.00 C 556.17 625.66 556.13 627.32 556.09 628.99 C 558.35 626.33 561.03 623.01 564.96 623.53 C 568.57 623.51 570.68 628.60 567.75 630.90 C 564.92 633.10 562.24 630.00 559.86 628.69 C 557.47 629.08 556.54 631.77 556.47 633.91 C 556.39 638.56 556.23 643.25 556.58 647.90 C 556.59 650.01 558.96 650.20 560.45 650.92 L 560.39 652.00 C 555.06 651.98 549.74 652.05 544.42 651.95 C 545.69 650.42 548.25 649.49 547.96 647.11 C 548.04 641.05 548.04 634.98 547.96 628.92 C 548.27 626.54 545.71 625.58 544.44 624.04 Z" />
</g>
<g id="#ffa00aff">
<path fill="#ffa00a" opacity="1.00" d=" M 629.49 98.84 C 633.66 98.96 635.30 103.01 637.53 105.82 C 646.32 117.81 655.35 129.62 664.06 141.67 C 669.06 148.30 674.01 154.97 678.96 161.64 C 684.71 169.25 690.43 176.90 696.03 184.63 C 733.64 234.94 770.96 285.45 808.56 335.76 C 810.40 337.82 809.90 341.01 808.20 343.00 C 791.65 366.33 775.52 389.95 759.00 413.29 C 741.38 438.66 723.76 464.04 705.98 489.29 C 682.92 522.64 659.55 555.77 636.47 589.09 C 634.63 591.61 633.17 595.16 629.49 595.09 C 629.32 491.40 629.46 387.72 629.42 284.04 C 629.46 222.30 629.32 160.57 629.49 98.84 Z" />
</g>
</svg>
